<?xml version="1.0" encoding="UTF-8"?>
<svg width="126px" height="38px" viewBox="0 0 126 38" version="1.1" xmlns="http://www.w3.org/2000/svg" xmlns:xlink="http://www.w3.org/1999/xlink">
    <!-- Generator: Sketch 52.1 (67048) - http://www.bohemiancoding.com/sketch -->
    <title>coach-dark</title>
    <desc>Created with Sketch.</desc>
    <g id="Page-1" stroke="none" stroke-width="1" fill="none" fill-rule="evenodd">
        <g id="Group-Copy-2" transform="translate(-369.000000, -60.000000)" fill="#687986" fill-rule="nonzero">
            <path d="M487.2,97.6 L376.1,97.6 L376.1,97.1 C376.1,96.8 375.6,90.5 369.4,89.3 L369,89.2 L369,68.4 L369.4,68.3 C375.6,67.2 376.1,60.7 376.1,60.5 L376.1,60 L376.6,60 L487.7,60 L487.7,60.5 C487.7,60.8 488.2,67.2 494.4,68.3 L494.8,68.4 L494.8,89.2 L494.4,89.3 C488.2,90.4 487.7,96.9 487.7,97.1 L487.7,97.6 L487.2,97.6 Z M377,96.6 L486.7,96.6 C486.9,95 488.1,89.6 493.7,88.4 L493.7,69.2 C488.1,68 486.9,62.6 486.7,61 L377,61 C376.8,62.6 375.6,68 370,69.2 L370,88.4 C375.6,89.7 376.8,95 377,96.6 Z M415.6,75.8 C416.6,77.3 416.6,79.4 416.1,81.1 C415.4,83 413.5,83.9 411.6,84 C409.9,84.1 408.3,83.7 407.1,82.4 C405.9,80.7 405.9,78.1 406.7,76.4 C407.5,74.9 409.1,74 410.7,73.9 C412.7,73.8 414.5,74.1 415.6,75.8 Z M485.2,62.6 C485.2,62.6 486.3,69.4 492.3,70.5 L492.3,87.1 C486.3,88.2 485.2,95.1 485.2,95.1 L378.5,95.1 C378.5,95.1 377.6,88.2 371.7,87.1 L371.7,70.5 C377.7,69.4 378.5,62.6 378.5,62.6 L485.2,62.6 Z M396.6,83.5 C397.6,82.9 398.7,81.8 398.7,80.5 C398.7,80.3 398.4,80.2 398.3,80.1 C397.6,80.2 397.7,81 397.5,81.4 C396.8,82.9 394.5,83.8 392.7,83.8 C390.6,83.7 388.4,83.5 387.2,81.6 C386.2,80.1 386.4,78.1 386.9,76.4 C387.5,74.4 389.5,73.9 391.3,73.7 C393.6,73.7 395.5,74.4 397,76.1 C397.6,76.7 397.2,78.7 398.7,77.9 L398.7,73.8 C397.9,72.9 397.3,74.3 396.4,74.2 C395,73.7 393.6,73.4 392.1,73.2 C387.9,73 383,73.5 381.3,77.6 C380.8,79.2 381.1,80.8 382.3,82 C385.9,85.2 392.3,85.5 396.6,83.5 Z M410.3,84.6 C414.4,84.7 419,84.3 421.4,80.7 C422,79.7 422,78.3 421.5,77.2 C420,74.8 417.5,73.8 414.9,73.5 C410,73.1 404.3,72.7 401,76.9 C400.4,77.8 400.3,79.2 400.7,80.2 C402.3,84 406.7,84.3 410.3,84.6 Z M442.3,84.3 C442.4,84.2 442.3,84 442.1,83.9 L442,83.9 C441.7,83.7 440.8,84 440.2,83.2 L432,73.4 L431.4,73.4 L423.1,82.3 C423.1,82.3 422.4,83 421.6,83.4 C421.1,83.7 420.6,83.7 420.4,83.9 C420.3,84 420.3,84 420.3,84.1 C420.3,84.3 420.4,84.4 420.6,84.4 L426.6,84.4 C426.8,84.4 426.9,84.3 426.9,84.1 C426.9,84 426.9,84 426.8,83.9 C426.7,83.8 426.7,83.8 426.6,83.8 C426.1,83.7 425,83.7 424.4,83 C424,82 425.1,81.6 425.6,81 L432.2,81 L434.2,83.5 C434,83.9 433,83.7 432.5,83.8 C432.4,83.8 432.3,83.8 432.3,83.9 C432.3,84 432.3,84 432.3,84.1 C432.3,84.3 432.4,84.4 432.6,84.4 L441.9,84.4 C442,84.5 442.2,84.5 442.3,84.3 Z M456.4,83.5 C457.4,82.9 458.5,81.8 458.5,80.5 C458.5,80.3 458.3,80.2 458.1,80.1 C457.4,80.2 457.5,81 457.3,81.4 C456.6,82.9 454.3,83.8 452.5,83.8 C450.4,83.7 448.2,83.5 447,81.6 C446,80.1 446.2,78.1 446.7,76.4 C447.3,74.4 449.3,73.9 451.1,73.7 C453.4,73.7 455.3,74.4 456.8,76.1 C457.4,76.7 457,78.7 458.5,77.9 L458.5,73.8 C457.7,72.9 457.1,74.3 456.2,74.2 C454.8,73.7 453.4,73.4 451.9,73.2 C447.7,73 442.8,73.5 441.1,77.6 C440.6,79.2 440.9,80.8 442.1,82 C445.7,85.2 452.1,85.5 456.4,83.5 Z M478.9,75.1 C478.9,75.1 478.8,74.4 479.6,74.4 L480.4,74.4 C480.6,74.4 480.7,74.3 480.7,74.1 C480.7,73.9 480.6,73.8 480.4,73.8 L471.8,73.8 C471.6,73.8 471.5,73.9 471.5,74.1 C471.5,74.3 471.6,74.4 471.8,74.4 L472.6,74.4 C473.5,74.4 473.4,75 473.4,75 L473.4,77.9 C473.4,77.9 473.5,78.5 472.6,78.5 L468.2,78.5 C467.3,78.5 467.4,77.9 467.4,77.9 L467.4,75 C467.4,75 467.3,74.4 468.2,74.4 L469.1,74.4 C469.3,74.4 469.4,74.3 469.4,74.1 C469.4,73.9 469.3,73.8 469.1,73.8 L460.5,73.8 C460.3,73.8 460.2,73.9 460.2,74.1 C460.2,74.3 460.3,74.4 460.5,74.4 L461.2,74.4 C462.1,74.4 462,75 462,75 L462,83.1 C462,83.1 462.1,83.8 461.2,83.8 L460.6,83.8 C460.4,83.8 460.3,83.9 460.3,84.1 C460.3,84.3 460.4,84.4 460.6,84.4 L469.2,84.4 C469.3,84.4 469.5,84.4 469.5,84.2 C469.5,84 469.4,83.9 469.2,83.9 L468.3,83.9 C467.4,83.9 467.5,83.3 467.5,83.3 L467.5,80.4 C467.5,80.4 467.4,79.7 468.3,79.7 L472.7,79.7 C473.6,79.7 473.5,80.4 473.5,80.4 L473.5,83.3 C473.5,83.3 473.6,83.9 472.7,83.9 L471.9,83.9 C471.7,83.9 471.6,84 471.6,84.2 C471.6,84.4 471.7,84.5 471.9,84.5 L480.5,84.5 C480.7,84.5 480.8,84.4 480.8,84.2 C480.8,84 480.7,83.9 480.5,83.9 L479.7,83.9 C478.8,83.9 478.9,83.2 478.9,83.2 L478.9,75.1 Z M431.3,80.2 L426.4,80.2 L426.4,79.9 L428.7,77.4 L429.1,77.4 L431.3,80.2 Z" id="coach-dark"></path>
        </g>
    </g>
</svg>