<?xml version="1.0" encoding="UTF-8"?>
<svg width="91px" height="37px" viewBox="0 0 91 37" version="1.1" xmlns="http://www.w3.org/2000/svg" xmlns:xlink="http://www.w3.org/1999/xlink">
    <!-- Generator: Sketch 52.1 (67048) - http://www.bohemiancoding.com/sketch -->
    <title>ibm-dark</title>
    <desc>Created with Sketch.</desc>
    <g id="Page-1" stroke="none" stroke-width="1" fill="none" fill-rule="evenodd">
        <g id="Group-Copy-2" transform="translate(-905.000000, -55.000000)" fill="#687986">
            <path d="M982,55 L996,55 L996,58 L981,58 L982,55 Z M955.759633,55.74 L969.701835,55.74 L970.536697,58.2888889 L955.759633,58.2888889 L955.759633,55.74 Z M944.73945,55.74 C947.077064,55.9044444 949.080734,56.8088889 950.666972,58.2888889 L925.370642,58.2888889 L925.370642,55.74 L944.73945,55.74 Z M905.66789,58.2066667 L905.66789,55.74 L923.2,55.74 L923.2,58.2066667 L905.66789,58.2066667 Z M995.749541,63.0577778 L979.052294,63.0577778 L979.887156,60.5088889 L995.666055,60.5088889 L995.666055,63.0577778 L995.749541,63.0577778 Z M972.373394,63.0577778 L955.759633,63.0577778 L955.759633,60.5088889 L971.455046,60.5088889 L972.373394,63.0577778 Z M952.670642,60.5088889 C952.921101,61.3311111 953.422018,61.9888889 953.422018,63.0577778 L925.537615,63.0577778 L925.537615,60.5088889 L952.670642,60.5088889 Z M905.66789,63.0577778 L905.66789,60.5088889 L923.2,60.5088889 L923.2,63.0577778 L905.66789,63.0577778 Z M977.382569,67.9088889 L978.217431,65.36 L990.823853,65.36 L990.823853,67.7444444 L977.382569,67.9088889 Z M973.124771,65.36 L974.126606,67.9088889 L960.768807,67.9088889 L960.768807,65.36 L973.124771,65.36 Z M953.672477,65.36 C953.672477,66.1822222 953.588991,67.1688889 953.255046,67.9088889 L945.574312,67.9088889 L945.574312,65.36 L953.672477,65.36 Z M910.593578,67.9088889 L910.593578,65.36 L918.107339,65.36 L918.107339,67.9088889 L910.593578,67.9088889 Z M930.546789,67.9088889 L930.546789,65.36 L938.06055,65.36 L938.06055,67.9088889 L930.546789,67.9088889 Z M968.115596,70.6222222 L968.115596,72.5133333 L960.685321,72.5133333 L960.685321,69.9644444 L974.794495,69.9644444 L975.629358,72.3488889 L976.46422,69.9644444 L990.656881,69.9644444 L990.656881,72.5133333 L983.226606,72.5133333 L983.226606,70.6222222 L982.558716,72.5133333 L968.866972,72.5133333 L968.115596,70.6222222 Z M930.546789,69.9644444 L952.169725,69.9644444 C951.668807,70.7866667 950.833945,71.8555556 950.082569,72.5133333 L930.713761,72.5133333 C930.546789,72.5133333 930.546789,69.9644444 930.546789,69.9644444 Z M910.593578,72.5133333 L910.593578,69.9644444 L918.107339,69.9644444 L918.107339,72.5133333 L910.593578,72.5133333 Z M983.393578,77.2822222 L983.393578,74.8155556 L990.823853,74.8155556 L990.823853,77.2822222 L983.393578,77.2822222 Z M968.115596,74.8155556 C968.115596,74.8155556 968.115596,77.2822222 968.115596,77.3644444 L960.685321,77.3644444 L960.685321,74.8155556 L968.115596,74.8155556 Z M981.974312,74.8155556 L981.13945,77.3644444 L970.620183,77.3644444 L969.618349,74.8155556 L981.974312,74.8155556 Z M930.546789,74.8155556 L949.915596,74.8155556 C950.750459,75.5555556 951.668807,76.46 952.253211,77.3644444 L930.546789,77.3644444 C930.546789,77.2822222 930.546789,74.8155556 930.546789,74.8155556 Z M918.107339,77.2822222 L910.593578,77.2822222 L910.593578,74.7333333 L918.107339,74.7333333 L918.107339,77.2822222 Z M983.393578,82.0511111 L983.393578,79.5022222 L990.823853,79.5022222 L990.823853,82.0511111 L983.393578,82.0511111 Z M960.768807,82.0511111 L960.768807,79.5022222 L968.115596,79.5022222 L968.115596,82.0511111 L960.768807,82.0511111 Z M979.302752,82.0511111 L972.289908,82.0511111 L971.288073,79.5022222 L980.304587,79.5022222 C980.137615,79.5022222 979.302752,82.0511111 979.302752,82.0511111 Z M930.546789,82.0511111 L930.546789,79.5022222 L938.144037,79.5022222 L938.144037,82.0511111 L930.546789,82.0511111 Z M953.338532,79.5022222 C953.755963,80.2422222 953.755963,81.2288889 953.83945,82.0511111 L945.741284,82.0511111 L945.741284,79.5022222 L953.338532,79.5022222 Z M910.593578,82.0511111 L910.593578,79.5022222 L918.107339,79.5022222 L918.107339,82.0511111 L910.593578,82.0511111 Z M983.393578,86.7377778 L983.393578,84.2711111 L995.749541,84.2711111 L995.749541,86.7377778 L983.393578,86.7377778 Z M955.759633,86.7377778 L955.759633,84.2711111 L968.115596,84.2711111 L968.115596,86.7377778 L955.759633,86.7377778 Z M977.633028,86.7377778 L973.959633,86.7377778 L972.957798,84.2711111 L978.551376,84.2711111 L977.633028,86.7377778 Z M905.66789,84.2711111 L923.116514,84.2711111 L923.116514,86.82 L905.66789,86.82 L905.66789,84.2711111 Z M953.588991,84.2711111 C953.422018,85.0933333 953.17156,86.1622222 952.587156,86.82 L952.420183,86.82 L925.537615,86.82 L925.537615,84.2711111 L953.588991,84.2711111 Z M975.963303,91.5066667 L975.629358,91.5066667 L974.711009,88.9577778 L976.881651,88.9577778 L975.963303,91.5066667 Z M983.393578,91.5066667 L983.393578,88.9577778 L995.749541,88.9577778 L995.749541,91.5066667 L983.393578,91.5066667 Z M925.537615,91.5066667 L925.537615,88.9577778 C925.537615,88.9577778 950.833945,88.9577778 950.917431,88.9577778 C949.247706,90.6022222 946.910092,91.5066667 944.405505,91.5066667 L925.537615,91.5066667 Z M955.759633,91.5066667 L955.759633,88.9577778 L968.115596,88.9577778 L968.115596,91.5066667 L955.759633,91.5066667 Z M923.2,88.9577778 L923.2,91.5066667 L905.66789,91.5066667 L905.66789,88.9577778 L923.2,88.9577778 Z" id="ibm-dark"></path>
        </g>
    </g>
</svg>