<svg width="150" height="17" xmlns="http://www.w3.org/2000/svg"><g fill="#FFF"><path d="M24.4272278 0h-4.6555372L13 17h4.748648l1.1892782-2.902439h6.1664707L26.2259581 17H31L24.4272278 0zm-4.2323066 10.7804878l1.849518-5.44h.0465554l1.8283564 5.44h-3.7244298zM6.7959288 0H0v17h4.6173698v-5.804878h2.3338706c3.874393 0 6.0487544-1.6585366 6.0487544-5.6431708C13.0041924 1.6792682 10.4688366 0 6.7959288 0zM5.184047 7.8780488h-.5666772V3.731677l.5666772.0000303c1.7252173 0 3.1943804-.0331707 3.1943804 2.0939025.0041976 2.052439-1.5824986 2.052439-3.1901828 2.052439H5.184047zM94.6538462 10.3658537l4.6538461.0082926v-3.74h-4.6538461v-2.902439H101V0H90v17h11v-4.1463415h-6.3461538zM54 4.5609756h4.1935484L58.2187097 17h4.5877419V4.5609756H67V0H54zM81.2432432 6.6341463h-6.4864864V0H70v17h4.7567568v-6.6341463h6.4864864V17H86V0h-4.7567568zM111.5 4.5609756c2.175463 0 3.939024 1.7635613 3.939024 3.9390244s-1.763561 3.9390244-3.939024 3.9390244c-2.175463 0-3.939024-1.7635613-3.939024-3.9390244.002285-2.1745158 1.764508-3.936739 3.939024-3.9390244zM111.5 0c-4.69442 0-8.5 3.8055796-8.5 8.5s3.80558 8.5 8.5 8.5 8.5-3.8055796 8.5-8.5-3.80558-8.5-8.5-8.5zM135.474872 9.52L128.246154 0H124v17h4.529231l-.01641-9.5365854L135.421538 17H140V0h-4.512821zM45.4748718 9.52L38.2461538 0H34v17h4.5292308l-.0164103-9.5365854L45.4215385 17H50V0h-4.5128205zM143.000121 3.5087685c-.003974-.4687828.089948-.9332188.275738-1.3634952.359799-.8387669 1.02717-1.5072718 1.864515-1.8676815.868324-.3701224 1.849666-.3701224 2.71799 0 .837345.3604097 1.504716 1.0289146 1.864515 1.8676815.369495.8697984.369495 1.8528077 0 2.7226061-.357303.8298092-1.015931 1.49269-1.842631 1.8545288-.868324.3701224-1.849666.3701224-2.71799 0-.837345-.3604097-1.504716-1.0289146-1.864515-1.8676815-.190937-.4232495-.292274-.8815312-.297622-1.3459582zm.621505 0c-.001601.385779.075862.767782.227593 1.1223625.291003.6922429.84081 1.2429835 1.531879 1.5344801.716641.3015552 1.524278.3015552 2.240919 0 .691334-.2911015 1.24127-.8419716 1.531878-1.53448.301044-.7178587.301044-1.5268666 0-2.2447252-.290608-.6925085-.840544-1.2433786-1.531878-1.5344801-.716542-.3020508-1.524377-.3020508-2.240919 0-.691069.2914967-1.240876.8422372-1.531879 1.53448-.151731.3545806-.229194.7365836-.227593 1.1223627zm1.531878-2.0255138h1.545009c.382129-.0317936.762498.0790756 1.067938.3112803.235687.2289331.361652.5483734.345767.8768457.022203.2906234-.075931.577597-.271361.7935455-.184388.1777668-.423589.2875224-.678403.3112802l1.0373 1.6966966h-.757186l-.997909-1.6397016h-.538346V5.472903h-.735301V1.4613336l-.017508.0219211zm.735302 1.7536916h.875359c.105141-.007314.208504-.0309799.306376-.0701477.088639-.0354331.165855-.094581.223216-.170985.112859-.1921234.112859-.4304369 0-.6225604-.057199-.0765653-.134464-.1357512-.223216-.170985-.09769-.0390784-.201278-.0613136-.306376-.0657634h-.875359v1.1004415z"/></g></svg>
