<?xml version="1.0" encoding="UTF-8"?>
<svg width="106px" height="43px" viewBox="0 0 106 43" version="1.1" xmlns="http://www.w3.org/2000/svg" xmlns:xlink="http://www.w3.org/1999/xlink">
    <!-- Generator: Sketch 52.1 (67048) - http://www.bohemiancoding.com/sketch -->
    <title>quicken-loans-dark</title>
    <desc>Created with Sketch.</desc>
    <g id="Page-1" stroke="none" stroke-width="1" fill="none" fill-rule="evenodd">
        <g id="Group-Copy-2" transform="translate(-739.000000, -53.000000)" fill="#687986">
            <path d="M777.553663,95.910106 C777.553663,96 777.553663,96 777.553663,95.910106 C777.102215,95.640424 776.560477,95.820212 776.109029,95.730318 C776.020702,95.730318 775.845966,95.8163473 775.753883,95.9042462 C772.993938,95.697683 770.774678,94.086914 770.059625,91.5951942 C769.517888,89.7074202 769.879046,87.9095403 770.691652,86.2015543 C772.497445,82.5159005 776.470187,80.2685505 780.53322,80.7180205 C781.706985,80.8079145 782.88075,81.0775965 783.873935,81.7967485 C785.860307,83.1451584 786.582624,85.0329324 786.492334,87.2802823 C786.221465,91.9547701 782.429302,95.190954 778.366269,95.820212 C778.0954,95.820212 777.914821,95.910106 777.643952,95.910106 L777.553663,95.910106 Z M823.781942,96 C823.330494,95.910106 822.969336,95.820212 822.517888,95.730318 C820.531516,95.280848 819.086882,94.1122261 818.545145,92.0446641 C818.454855,91.5053002 818.454855,91.5053002 818.996593,91.4154062 C820.260647,91.2356182 821.614991,91.0558302 822.879046,90.8760422 C822.969336,90.8760422 823.149915,90.7861482 823.240204,90.9659362 C823.330494,91.8648761 823.962521,92.1345581 824.775128,92.3143461 C825.678024,92.4941341 826.58092,92.4941341 827.483816,92.3143461 C827.754685,92.2244521 828.025554,92.1345581 828.296422,91.9547701 C828.657581,91.5951942 828.657581,91.2356182 828.206133,91.0558302 C827.664395,90.7861482 826.942078,90.6962542 826.310051,90.6063602 C825.136286,90.4265722 824.052811,90.2467842 822.969336,89.8872082 C820.621806,89.0781622 819.899489,87.4600703 820.621806,85.0329324 C821.163543,83.2350524 822.427598,82.1563245 824.052811,81.4371725 C826.400341,80.4483385 828.92845,80.2685505 831.366269,81.0775965 C832.901193,81.5270665 833.984668,82.5159005 834.345826,84.1339924 C834.436116,84.4036744 834.345826,84.4935684 834.074957,84.4935684 C832.720613,84.7632504 831.366269,84.9430384 830.102215,85.2127204 C829.921635,85.2127204 829.831346,85.2127204 829.831346,85.0329324 C829.650767,84.4935684 829.199319,84.2238864 828.657581,84.0440984 C827.844974,83.7744164 826.942078,83.8643104 826.129472,84.2238864 C825.858603,84.3137804 825.587734,84.4935684 825.587734,84.8531444 C825.587734,85.2127204 825.858603,85.3026144 826.129472,85.3925084 C826.942078,85.6621904 827.844974,85.6621904 828.657581,85.7520844 C829.560477,85.8419783 830.463373,86.0217663 831.366269,86.2914483 C833.53322,87.0106003 834.436116,88.7185863 833.804089,90.9659362 C833.352641,92.6739221 832.269165,93.9324381 830.643952,94.741484 C829.470187,95.370742 828.206133,95.640424 826.851789,95.820212 C826.761499,95.820212 826.67121,95.730318 826.58092,95.910106 C825.587734,96 824.684838,96 823.781942,96 Z M804.640545,67.413709 C804.008518,67.953073 803.376491,68.4025429 802.834753,69.0318009 C802.563884,69.3913769 802.563884,70.0206349 802.473595,70.4701049 C802.293015,71.1892569 802.202726,71.9983028 802.022147,72.7174548 C802.022147,72.9871368 801.931857,73.0770308 801.660988,73.0770308 C799.945486,73.0770308 798.320273,73.0770308 796.60477,73.0770308 C796.243612,73.0770308 796.243612,72.9871368 796.333901,72.7174548 C797.597956,66.334981 798.86201,60.0424012 800.035775,53.6599275 C800.126065,53.4801395 800.216354,53.3902455 800.487223,53.3902455 C802.202726,53.3902455 803.827939,53.3902455 805.543441,53.3902455 C805.81431,53.3902455 805.9046,53.4801395 805.81431,53.7498215 C805.182283,57.0758993 804.550256,60.4019772 803.827939,63.7280551 C803.827939,63.8179491 803.737649,63.9078431 803.827939,63.9078431 C804.550256,63.2785851 805.182283,62.5594331 805.9046,61.9301752 C807.078365,60.8514472 808.252129,59.7727192 809.335605,58.6939913 C809.425894,58.6040973 809.606474,58.5142033 809.787053,58.5142033 C811.321976,58.5142033 812.947189,58.5142033 814.572402,58.5142033 C814.301533,58.7838853 814.120954,58.9636733 813.850085,59.2333553 C812.405451,60.5817652 810.870528,62.0200692 809.425894,63.3684791 C809.245315,63.5482671 809.155026,63.7280551 809.245315,63.9977371 C810.238501,66.964239 811.141397,69.9307409 812.134583,72.8972428 C812.224872,73.1669248 812.224872,73.3467128 811.863714,73.2568188 C810.148211,73.2568188 808.342419,73.2568188 806.626917,73.2568188 C806.356048,73.2568188 806.175468,73.1669248 806.085179,72.8972428 C805.633731,71.0094689 805.091993,69.2115889 804.640545,67.413709 Z M810.599659,83.0552644 C812.315162,80.8978085 814.482112,80.3584445 816.919932,80.9877025 C818.635434,81.3472785 819.357751,82.5159005 819.267462,84.3137804 C819.177172,85.8419783 818.816014,87.2802823 818.545145,88.7185863 C818.093697,90.9659362 817.642249,93.2132861 817.28109,95.370742 C817.190801,95.730318 817.100511,95.820212 816.739353,95.820212 C815.11414,95.820212 813.398637,95.820212 811.773424,95.820212 C811.502555,95.820212 811.412266,95.730318 811.502555,95.460636 C812.044293,92.5840281 812.586031,89.7074202 813.218058,86.8308123 C813.308348,86.4712363 813.398637,86.0217663 813.308348,85.6621904 C813.308348,85.1228264 812.947189,84.8531444 812.405451,84.7632504 C811.592845,84.7632504 810.870528,85.1228264 810.50937,85.9318723 C810.148211,86.6510243 810.057922,87.4600703 809.877342,88.1792223 C809.425894,90.6063602 808.974446,93.0334981 808.432709,95.460636 C808.342419,95.730318 808.342419,95.820212 807.981261,95.820212 C806.265758,95.820212 804.640545,95.820212 802.925043,95.820212 C802.654174,95.820212 802.563884,95.730318 802.654174,95.460636 C803.46678,91.5053002 804.189097,87.5499643 805.001704,83.5946284 C805.182283,82.8754765 805.272572,82.0664305 805.453152,81.3472785 C805.453152,81.1674905 805.543441,81.0775965 805.81431,81.0775965 C807.439523,81.0775965 809.064736,81.0775965 810.689949,81.0775965 C810.960818,81.0775965 810.960818,81.1674905 810.960818,81.4371725 C810.780239,81.8866425 810.689949,82.4260065 810.599659,83.0552644 Z M774.935264,58.5142033 C774.483816,60.8514472 774.032368,63.2785851 773.58092,65.705723 C773.129472,68.042967 772.678024,70.3802109 772.226576,72.7174548 C772.136286,73.0770308 772.045997,73.2568188 771.594549,73.2568188 C770.059625,73.2568188 768.524702,73.2568188 766.989779,73.2568188 C766.71891,73.2568188 766.62862,73.1669248 766.71891,72.8972428 C766.899489,72.2679848 766.989779,71.6387268 767.080068,70.9195749 C766.809199,71.2791508 766.62862,71.5488328 766.357751,71.8185148 C765.364566,72.8972428 764.100511,73.3467128 762.746167,73.4366068 C761.752981,73.5265008 760.759796,73.5265008 759.856899,73.0770308 C758.954003,72.6275608 758.412266,71.8185148 758.321976,70.8296809 C758.231687,69.6610589 758.502555,68.5823309 758.773424,67.413709 C759.315162,64.5371011 759.856899,61.6604932 760.488927,58.7838853 C760.579216,58.5142033 760.669506,58.4243093 760.940375,58.4243093 C762.565588,58.4243093 764.190801,58.4243093 765.816014,58.4243093 C766.357751,58.4243093 766.357751,58.4243093 766.267462,58.8737793 C765.725724,61.8402812 765.093697,64.8067831 764.551959,67.773285 C764.46167,68.222755 764.37138,68.7621189 764.822828,69.0318009 C765.274276,69.3913769 765.816014,69.2115889 766.357751,68.9419069 C766.989779,68.5823309 767.350937,67.953073 767.531516,67.233921 C767.982964,64.9865711 768.434412,62.8291151 768.88586,60.5817652 C768.97615,59.8626132 769.156729,59.2333553 769.247019,58.5142033 C769.247019,58.3344153 769.337308,58.2445213 769.517888,58.2445213 C771.32368,58.2445213 773.129472,58.2445213 774.935264,58.2445213 C774.844974,58.4243093 774.844974,58.5142033 774.935264,58.5142033 Z M836.241908,60.4918712 C836.964225,59.4131433 837.867121,58.6939913 839.040886,58.4243093 C840.30494,58.0647333 841.568995,57.9748393 842.923339,58.4243093 C844.277683,58.8737793 844.90971,59.8626132 845,61.2110232 C845,62.1998572 844.819421,63.1886911 844.638842,64.2674191 C844.097104,67.144027 843.555366,69.9307409 843.013629,72.8073488 C842.923339,73.0770308 842.833049,73.1669248 842.562181,73.1669248 C840.846678,73.1669248 839.221465,73.1669248 837.505963,73.1669248 C837.235094,73.1669248 837.144804,73.0770308 837.235094,72.8073488 C837.776831,69.9307409 838.408859,66.964239 838.950596,64.0876311 C839.040886,63.7280551 839.131175,63.3684791 839.040886,62.9190091 C838.950596,62.3796452 838.679727,62.1099632 838.13799,62.1099632 C837.235094,62.1099632 836.603066,62.5594331 836.241908,63.4583731 C835.88075,64.2674191 835.79046,65.0764651 835.70017,65.975405 C835.248722,68.222755 834.797274,70.5599989 834.345826,72.8073488 C834.255537,73.0770308 834.165247,73.1669248 833.894378,73.1669248 C832.178876,73.1669248 830.553663,73.1669248 828.83816,73.1669248 C828.567291,73.1669248 828.477002,73.0770308 828.567291,72.8073488 C829.470187,68.132861 830.373083,63.4583731 831.27598,58.7838853 C831.366269,58.5142033 831.366269,58.5142033 831.637138,58.5142033 C833.262351,58.5142033 834.797274,58.5142033 836.422487,58.5142033 C836.693356,58.5142033 836.783646,58.6040973 836.693356,58.8737793 C836.422487,59.3232493 836.332198,59.8626132 836.241908,60.4918712 Z M761.301533,95.730318 C759.134583,95.730318 756.967632,95.730318 754.710392,95.730318 C754.349233,95.730318 754.258944,95.640424 754.349233,95.280848 C755.522998,89.5276322 756.606474,83.6845224 757.780239,77.8414126 C757.870528,77.3020486 758.051107,76.6727907 758.141397,76.1334267 C758.141397,75.8637447 758.231687,75.7738507 758.502555,75.7738507 C760.308348,75.7738507 762.11414,75.7738507 764.010221,75.7738507 C764.37138,75.7738507 764.37138,75.8637447 764.28109,76.2233207 C763.378194,80.9877025 762.475298,85.6621904 761.482112,90.4265722 C761.391823,90.7861482 761.482112,90.7861482 761.843271,90.7861482 C764.190801,90.7861482 766.53833,90.7861482 768.795571,90.7861482 C769.156729,90.7861482 769.247019,90.8760422 769.156729,91.2356182 C768.88586,92.5840281 768.614991,93.9324381 768.344123,95.280848 C768.253833,95.640424 768.163543,95.730318 767.802385,95.730318 C765.725724,95.730318 763.558773,95.730318 761.301533,95.730318 Z M788.027257,73.4366068 C787.30494,73.4366068 786.672913,73.4366068 785.950596,73.2568188 C783.693356,72.7174548 782.068143,70.8296809 781.797274,68.4924369 C781.255537,63.8179491 784.505963,59.3232493 789.110733,58.4243093 C791.006814,58.0647333 792.902896,58.0647333 794.618399,59.1434613 C796.333901,60.2221892 796.965928,61.8402812 796.875639,63.8179491 C796.875639,63.9977371 796.785349,64.0876311 796.60477,64.0876311 C795.069847,64.1775251 793.534923,64.3573131 792,64.4472071 C791.729131,64.4472071 791.638842,64.4472071 791.638842,64.1775251 C791.638842,63.9078431 791.638842,63.5482671 791.548552,63.2785851 C791.367973,62.3796452 790.735945,62.0200692 789.833049,62.2897512 C789.110733,62.4695392 788.749574,63.0089031 788.478705,63.6381611 C787.846678,65.0764651 787.575809,66.514769 787.575809,68.042967 C787.575809,68.5823309 787.756388,69.2115889 788.298126,69.3913769 C788.930153,69.6610589 789.471891,69.5711649 790.013629,69.2115889 C790.555366,68.8520129 790.916525,68.312649 791.097104,67.683391 C791.187394,67.413709 791.277683,67.413709 791.548552,67.413709 C792.993186,67.503603 794.34753,67.683391 795.792164,67.773285 C796.063032,67.773285 796.153322,67.863179 795.972743,68.132861 C794.889267,71.0094689 792.902896,72.8073488 789.833049,73.4366068 C789.381601,73.4366068 788.659284,73.4366068 788.027257,73.4366068 Z M779.359455,58.4243093 C780.172061,58.4243093 781.074957,58.4243093 781.887564,58.4243093 C782.158433,58.4243093 782.158433,58.5142033 782.158433,58.6939913 C781.255537,63.3684791 780.352641,68.132861 779.449744,72.8073488 C779.359455,73.0770308 779.359455,73.1669248 779.088586,73.1669248 C777.373083,73.1669248 775.657581,73.1669248 773.942078,73.1669248 C773.67121,73.1669248 773.58092,73.0770308 773.67121,72.8073488 C774.574106,68.132861 775.477002,63.4583731 776.470187,58.6939913 C776.470187,58.4243093 776.560477,58.4243093 776.831346,58.4243093 C777.643952,58.4243093 778.456559,58.4243093 779.359455,58.4243093 Z M783.241908,53.1205635 C782.971039,54.3790794 782.79046,55.5477014 782.519591,56.7163233 C782.519591,56.8961113 782.429302,56.9860053 782.248722,56.9860053 C780.53322,56.9860053 778.817717,56.9860053 777.102215,56.9860053 C776.921635,56.9860053 776.831346,56.8961113 776.831346,56.7163233 C777.102215,55.5477014 777.282794,54.4689734 777.463373,53.3003515 C777.463373,53.1205635 777.553663,53.1205635 777.734242,53.1205635 C779.540034,53.1205635 781.345826,53.1205635 783.241908,53.1205635 Z M756.155026,72.1780908 C756.335605,72.0881968 756.516184,71.9983028 756.245315,72.2679848 C755.974446,73.6163948 755.703578,74.9648047 755.432709,76.3132147 C755.432709,76.4930027 755.432709,76.5828967 755.252129,76.5828967 C754.078365,76.5828967 752.81431,76.8525787 751.550256,76.5828967 C749.834753,76.2233207 748.931857,75.2344867 748.841567,73.5265008 C748.841567,73.1669248 748.751278,73.0770308 748.390119,73.1669248 C746.674617,73.5265008 744.959114,73.5265008 743.243612,72.8972428 C740.896082,71.9983028 739.722317,70.1105289 739.180579,67.683391 C739.09029,67.413709 739.180579,67.144027 739,66.874345 C739,66.065299 739,65.3461471 739,64.5371011 C739.180579,63.9078431 739.270869,63.1886911 739.451448,62.5594331 C740.354344,59.0535673 742.160136,56.2668534 745.320273,54.4689734 C748.390119,52.7609875 751.640545,52.4913055 754.890971,53.9296094 C756.967632,54.8285494 758.141397,56.6264294 758.412266,58.8737793 C759.044293,63.0089031 757.870528,66.694557 755.07155,69.8408469 C754.529813,70.3802109 753.988075,70.8296809 753.356048,71.1892569 C753.085179,71.3690448 753.085179,71.5488328 753.265758,71.8185148 C753.536627,72.1780908 753.897785,72.2679848 754.349233,72.2679848 C754.981261,72.3578788 755.522998,72.3578788 756.155026,72.1780908 Z M752.091993,60.3120832 C752.091993,60.1322952 752.091993,59.8626132 752.001704,59.6828252 C751.911414,58.6040973 751.459966,57.8849453 750.647359,57.7051573 C749.563884,57.4354753 748.660988,57.7051573 747.848382,58.4243093 C747.216354,59.0535673 746.855196,59.8626132 746.584327,60.6716592 C746.132879,62.1099632 745.9523,63.4583731 745.681431,64.8966771 C745.500852,65.795617 745.410562,66.604663 745.681431,67.503603 C745.86201,68.132861 746.313458,68.6722249 747.035775,68.8520129 C747.758092,69.0318009 748.480409,68.9419069 749.112436,68.6722249 C750.015332,68.222755 750.55707,67.413709 750.918228,66.514769 C751.730835,64.5371011 752.001704,62.4695392 752.091993,60.3120832 Z M801.390119,81.7967485 C802.654174,82.6956885 802.925043,83.8643104 802.473595,85.3925084 C802.022147,87.8196463 801.570698,90.1568902 801.11925,92.5840281 C800.938671,93.5728621 800.758092,94.561696 800.938671,95.55053 C800.938671,95.730318 800.848382,95.820212 800.667802,95.820212 C799.042589,95.820212 797.327087,95.820212 795.701874,95.820212 C795.431005,95.820212 795.431005,95.730318 795.431005,95.460636 C795.521295,94.921272 795.521295,94.4718021 795.611584,93.8425441 C794.34753,95.10106 792.902896,95.910106 791.187394,96 C790.645656,96 790.103918,96 789.562181,96 C788.930153,95.910106 788.298126,95.730318 787.756388,95.460636 C786.221465,94.561696 785.589438,92.9436041 786.221465,91.0558302 C786.763203,89.4377382 787.846678,88.3590103 789.291312,87.6398583 C790.645656,86.9207063 792.09029,86.6510243 793.625213,86.3813423 C794.618399,86.2914483 795.611584,86.2015543 796.60477,86.1116603 C796.875639,86.1116603 796.965928,85.9318723 796.965928,85.7520844 C797.146508,84.5834624 796.785349,84.1339924 795.521295,84.1339924 C794.34753,84.1339924 793.444634,84.4935684 792.993186,85.5722964 C792.902896,85.8419783 792.812606,85.7520844 792.632027,85.7520844 C791.277683,85.6621904 790.013629,85.4824024 788.659284,85.3925084 C788.659284,85.3925084 788.568995,85.3925084 788.478705,85.3925084 C787.756388,85.3026144 787.756388,85.3026144 788.117547,84.5834624 C788.930153,83.1451584 790.103918,82.1563245 791.638842,81.5270665 C794.34753,80.4483385 797.146508,80.4483385 800.035775,81.1674905 C800.487223,81.2573845 800.938671,81.5270665 801.390119,81.7967485 Z M796.333901,89.0781622 C796.333901,88.8983742 796.243612,88.8084802 796.063032,88.8084802 C795.250426,88.8983742 794.437819,89.0781622 793.715503,89.4377382 C793.173765,89.7973142 792.632027,90.1568902 792.361158,90.8760422 C792,91.8648761 792.451448,92.4941341 793.534923,92.4941341 C794.618399,92.4941341 795.340716,92.0446641 795.792164,91.0558302 C796.063032,90.4265722 796.153322,89.7074202 796.333901,89.0781622 Z M791.277683,95.910106 C790.735945,95.730318 790.194208,95.730318 789.65247,95.910106 C789.65247,95.910106 789.65247,96 789.65247,96 C790.194208,96 790.735945,96 791.277683,95.910106 C791.277683,96 791.277683,96 791.277683,95.910106 Z M827.122658,60.0424012 C828.386712,61.3908112 828.657581,63.0089031 828.477002,64.8067831 C828.386712,65.436041 828.296422,65.975405 828.206133,66.604663 C828.206133,66.874345 828.025554,66.964239 827.754685,66.964239 C824.775128,66.964239 821.705281,66.964239 818.725724,66.964239 C818.364566,66.964239 818.183986,67.054133 818.183986,67.413709 C818.183986,67.593497 818.183986,67.863179 818.183986,68.042967 C818.183986,68.9419069 818.635434,69.4812709 819.62862,69.5711649 C821.073254,69.7509529 821.88586,69.3014829 822.517888,68.042967 C822.608177,67.953073 822.698467,67.863179 822.879046,67.863179 C824.594549,68.042967 826.310051,68.132861 828.025554,68.222755 C827.122658,70.1105289 825.858603,71.4589388 824.052811,72.3578788 C821.524702,73.6163948 818.906303,73.7961828 816.287905,72.9871368 C813.579216,72.1780908 812.134583,69.8408469 812.315162,67.144027 C812.586031,61.6604932 817.46167,57.6152633 822.969336,58.1546273 C824.594549,58.3344153 826.039182,58.7838853 827.122658,60.0424012 Z M822.06644,63.9977371 C823.149915,63.9977371 823.149915,63.9977371 822.969336,63.0089031 C822.879046,62.1998572 822.517888,61.6604932 821.795571,61.5705992 C820.170358,61.3009172 819.086882,62.3796452 818.816014,63.8179491 C818.816014,63.9977371 818.996593,63.9977371 819.086882,63.9977371 C819.71891,63.9977371 820.260647,63.9977371 820.892675,63.9977371 C821.253833,63.9977371 821.705281,63.9977371 822.06644,63.9977371 Z M780.262351,87.4600703 C780.352641,86.7409183 780.44293,86.0217663 780.352641,85.2127204 C780.172061,84.7632504 779.810903,84.4036744 779.269165,84.3137804 C778.637138,84.2238864 778.0954,84.4036744 777.643952,84.7632504 C777.192504,85.1228264 776.921635,85.5722964 776.741056,86.1116603 C776.199319,87.5499643 775.92845,89.0781622 775.83816,90.6063602 C775.83816,90.8760422 775.83816,91.2356182 775.92845,91.5053002 C776.018739,91.9547701 776.199319,92.3143461 776.650767,92.4042401 C777.553663,92.5840281 778.366269,92.4941341 778.908007,91.6850881 C779.178876,91.3255122 779.269165,91.0558302 779.449744,90.6962542 C779.901193,89.7074202 780.081772,88.5387983 780.262351,87.4600703 Z M838.0477,82.1563245 C838.0477,82.9653704 837.415673,83.5946284 836.603066,83.5946284 C835.79046,83.5946284 835.158433,82.9653704 835.158433,82.1563245 C835.158433,81.3472785 835.79046,80.8079145 836.603066,80.8079145 C837.415673,80.7180205 838.0477,81.3472785 838.0477,82.1563245 Z M835.609881,82.1563245 C835.609881,82.7855825 836.061329,83.2350524 836.693356,83.2350524 C837.325383,83.2350524 837.776831,82.7855825 837.776831,82.1563245 C837.776831,81.5270665 837.325383,81.0775965 836.693356,81.0775965 C836.061329,80.9877025 835.609881,81.5270665 835.609881,82.1563245 Z M836.422487,82.8754765 L836.061329,82.8754765 L836.061329,81.5270665 C836.151618,81.5270665 836.332198,81.5270665 836.603066,81.5270665 C836.873935,81.5270665 836.964225,81.5270665 837.054514,81.6169605 C837.144804,81.7068545 837.235094,81.7967485 837.235094,81.8866425 C837.235094,82.0664305 837.144804,82.1563245 836.964225,82.2462185 C837.144804,82.3361125 837.144804,82.4260065 837.235094,82.6057945 C837.235094,82.7855825 837.325383,82.8754765 837.325383,82.9653704 L836.964225,82.9653704 C836.964225,82.8754765 836.873935,82.7855825 836.873935,82.6057945 C836.873935,82.4260065 836.783646,82.4260065 836.603066,82.4260065 L836.422487,82.4260065 L836.422487,82.8754765 Z M836.422487,82.0664305 L836.603066,82.0664305 C836.783646,82.0664305 836.964225,81.9765365 836.964225,81.8866425 C836.964225,81.7967485 836.873935,81.7068545 836.693356,81.7068545 C836.603066,81.7068545 836.512777,81.7068545 836.512777,81.7068545 L836.512777,82.0664305 L836.422487,82.0664305 Z" id="quicken-loans-dark"></path>
        </g>
    </g>
</svg>