<?xml version="1.0" encoding="UTF-8"?>
<svg width="123px" height="34px" viewBox="0 0 123 34" version="1.1" xmlns="http://www.w3.org/2000/svg" xmlns:xlink="http://www.w3.org/1999/xlink">
    <!-- Generator: Sketch 52.1 (67048) - http://www.bohemiancoding.com/sketch -->
    <title>un-dark</title>
    <desc>Created with Sketch.</desc>
    <g id="Page-1" stroke="none" stroke-width="1" fill="none" fill-rule="evenodd">
        <g id="Group-Copy-2" transform="translate(-555.000000, -62.000000)" fill="#687986">
            <path d="M587.6,89.3 C586.4,89.6 585.2,89.7 584,90.1 C585.9,88.4 585.8,85.8 587.1,83.9 C587.5,83.3 587.8,82.8 588.3,82.2 C587.5,83.8 587.9,85.8 587,87.4 C586.7,88 586.2,88.6 585.6,89.1 C585.8,89.1 585.9,88.9 586.1,88.8 C587.6,87.3 589.5,86.9 591.1,85.7 C591.7,85.2 592.3,84.5 592.6,83.8 C592.3,86.3 589.8,88.5 587.6,89.3 Z M592.9,79.4 C592.2,80.4 591.3,81.4 590.7,82.4 C590.8,81.6 590.9,80.6 590.6,79.8 C590,78.1 589.6,76.4 589.4,74.6 L589.4,73.9 C589.8,75.8 591.7,77.1 591.5,79.2 C591.5,79.7 591.4,80.1 591.3,80.6 L591.4,80.5 C591.7,79.5 591.8,78.4 592.2,77.4 C592.8,76 593.6,74.6 593.2,72.9 C594.2,74.9 593.9,77.6 592.9,79.4 Z M591.7,68.8 C592.9,70.4 593.2,73.1 592.3,74.9 C592,75.7 591.7,76.5 591.6,77.4 C591.5,77.2 591.5,77 591.5,76.9 C591,75.1 589.3,73.7 588.5,72 C588.3,71.4 588.1,70.8 588,70.2 C588.8,71.6 590.6,72.3 591.2,73.9 C591.4,74.3 591.4,74.8 591.5,75.2 C591.5,75.2 591.6,75.2 591.6,75.2 C591.4,73.6 591.4,71.9 591.7,70.3 C591.7,69.4 591.6,68.6 591.1,67.9 C591.4,68.1 591.5,68.5 591.7,68.8 Z M590.9,68.4 C591.2,69.8 590.8,71.3 591,72.7 C590.2,71.2 588.6,70.4 587.4,69.2 C586.7,68.5 586.5,67.6 586.3,66.6 C587,68.2 588.7,68.5 589.8,69.9 C590.1,70.2 590.2,70.6 590.5,71 C589.9,69.8 589.7,68.4 589.3,67 C589.1,66.4 588.7,65.9 588.2,65.5 C589.4,65.8 590.6,67.1 590.9,68.4 Z M587.3,65.1 C588.3,66 588.8,67.2 589,68.4 L589.2,68.8 C587.7,67.8 586.4,66.4 585.5,64.8 L584.4,63.7 C585.4,64.1 586.5,64.4 587.3,65.1 Z M564.3,63.9 C563.3,64.8 562.6,65.9 561.9,67 C561.2,67.8 560.4,68.4 559.6,69.1 C560,68.3 560,67.2 560.6,66.5 C561.4,64.9 562.9,64.4 564.3,63.9 Z M558.8,66.9 C559.3,66.3 559.9,65.9 560.6,65.7 C559.2,66.6 559.3,68.3 558.9,69.7 C558.8,70.2 558.5,70.7 558.4,71.2 C558.6,70.6 559,70 559.5,69.6 C560.5,68.7 561.9,68.2 562.4,66.9 C562.4,68.7 560.9,70.2 559.4,71.2 C558.8,71.7 558.2,72.3 557.9,73 C557.9,72.5 558,72.1 557.9,71.6 C557.8,70 557.6,68.1 558.8,66.9 Z M556,72.4 C556,70.8 556.6,69.4 557.6,68.2 C557.6,68.2 557.6,68.2 557.7,68.2 C556.7,69.8 557.5,71.8 557.5,73.6 L557.4,75.4 C557.4,75.4 557.4,75.5 557.5,75.4 C557.6,75.2 557.6,75 557.6,74.8 C557.8,73.3 559.1,72.3 560.3,71.2 C560.5,70.9 560.8,70.7 560.9,70.3 C560.8,71 560.6,71.8 560.3,72.5 C559.4,74.2 557.8,75.6 557.5,77.6 C557.2,75.8 555.9,74.4 556,72.4 Z M555.2,74.7 C555.3,74.2 555.4,73.7 555.6,73.2 C555.2,75.3 556.6,76.9 557.1,78.7 C557.3,79.4 557.3,80.1 557.6,80.8 C557.6,80.8 557.6,80.8 557.7,80.8 C557,78.8 558,77 559,75.5 C559.2,75.1 559.4,74.6 559.5,74.1 C559.7,75 559.5,76 559.4,76.9 C559.2,78.1 558.8,79.2 558.5,80.4 C558.3,81.1 558.3,81.9 558.5,82.7 L558.4,82.6 C557.7,81.2 556.2,80.2 555.7,78.6 C555.2,77.4 555,76 555.2,74.7 Z M555.1,78.9 C555.3,81.2 557.7,82.4 558.8,84.2 C559.1,84.6 559.3,85 559.7,85.3 C559.6,85.1 559.4,84.9 559.3,84.6 C559,83.8 558.8,82.9 558.9,82 C559,80.8 559.5,79.8 559.3,78.5 C560.3,80.6 560,83.3 560.5,85.6 C560.6,86.1 560.9,86.6 561.1,87 C559.1,85.6 556.3,84.3 555.4,81.7 C555.1,81 555.1,79.9 555.1,78.9 Z M556.4,84.1 C557.5,86.7 560.4,86.9 562.3,88.5 C562.6,88.8 563,89.1 563.4,89.3 C563,88.9 562.5,88.5 562.2,87.9 C561.1,86.4 561.5,84.2 560.6,82.5 C561.4,83.4 562,84.3 562.5,85.4 C563.2,87.1 563.4,89 565,90.3 C563.3,89.7 561.3,89.9 559.8,88.8 C558.2,87.7 556.7,86 556.4,84.1 Z M559.3,88.9 C561.1,91 564.1,90.3 566.5,90.8 C566.8,90.8 567.2,91 567.5,90.9 C567.2,90.7 566.8,90.7 566.5,90.6 C564.6,89.9 564.3,87.9 563.3,86.5 C564.6,87.4 565.7,88.6 567,89.7 C567.9,90.5 568.9,90.8 570.1,91 C569.8,91.1 569.5,91.1 569.2,91.1 C567.2,91.6 565,92.4 562.9,91.7 C561.4,91.4 560,90.3 559.3,88.9 Z M584.1,93.8 C582.1,94.6 579.9,93.8 578.3,92.6 C577.7,92.2 577.1,91.6 576.2,91.6 C575.9,91.6 575.6,91.6 575.3,91.7 C576.9,92.4 578.3,93.4 579.6,94.7 C579.4,95 579.1,95.2 578.8,95.4 C577.5,94 576.1,92.7 574.5,91.9 C574.2,91.9 573.9,92.1 573.6,92.3 C572.3,93.1 571,94.2 570.1,95.5 L569.3,94.8 C570.6,93.5 572.1,92.4 573.7,91.7 C572.1,91.2 571.1,92.5 569.9,93.2 C568.5,94.2 566.5,94.6 564.9,93.9 C564,93.6 563.1,93.1 562.5,92.3 C563.8,93.2 565.8,93.3 567.3,92.7 C569.3,91.8 571.4,90.7 573.8,91.3 C574.2,91.3 574.5,91.7 574.9,91.4 C576.7,90.9 578.7,91.3 580.3,92.1 L581.9,92.7 C583.4,93.2 585.3,93.1 586.6,92.2 C585.9,92.8 585,93.4 584.1,93.8 Z M586.3,91.6 C584,92.5 581.7,91.4 579.5,91 L579,91 C580.1,90.8 581.1,90.4 581.9,89.7 C583.1,88.5 584.2,87.3 585.6,86.3 C584.6,87.6 584.5,89.5 582.8,90.3 C582.4,90.6 581.9,90.6 581.4,90.8 C582,90.8 582.6,90.6 583.2,90.5 C585.4,90.1 588.1,90.5 589.6,88.6 C589.1,90 587.6,91.2 586.3,91.6 Z M590.5,85.1 C589.6,85.7 588.7,86.2 587.8,86.9 L587.8,86.8 C589.1,84.6 588.5,81.5 589.3,79.1 L589.6,78.3 C589.4,79.8 590.1,81.1 590,82.7 C590,83.6 589.7,84.4 589.2,85.2 L589.3,85.2 C590,84.3 590.5,83.4 591.2,82.6 C592.4,81.5 593.6,80.3 593.7,78.7 C594.2,81.3 592.7,83.6 590.5,85.1 Z M586.8,70.4 C588.3,73.1 588.7,76.9 587.6,80.1 C586.7,83.8 583.6,87.5 580,89 C576,91 570.2,90.5 566.6,87.9 C561.6,84.5 559.6,78.5 561.1,72.7 C562.1,69.2 564.8,65.7 568.2,64.1 C570.1,63.1 572.2,62.6 574.4,62.6 C579.6,62.6 584.6,65.6 586.8,70.4 Z M587.5,75.2 C587.2,72.1 585.9,69.5 583.9,67.2 C583.5,67.7 583,68.2 582.5,68.7 L582.3,68.7 C582.5,68.7 582.5,68.9 582.6,69 C583.1,69.3 583.3,69.8 583.7,70.1 C583.9,70.6 584.5,71 584.5,71.6 C585.1,72.9 585.5,74.4 585.5,75.9 L585.4,76 C585.5,76 585.6,75.9 585.6,75.9 L587.6,75.9 C587.5,75.7 587.5,75.4 587.5,75.2 Z M581.9,82.6 C581.9,82.9 582.1,83.1 582.1,83.4 C583.8,81.6 584.6,79.4 584.8,76.9 L584.9,76.8 C584.3,76.8 583.6,76.8 583,76.8 L582.8,76.8 C582.8,77.2 582.7,77.6 582.7,78 L582.9,78.2 C583,78.3 583,78.4 582.9,78.5 C582.8,78.6 582.7,78.6 582.6,78.5 C582.3,79.4 582,80.3 581.4,81.1 C581.2,81.4 581,81.7 580.7,81.9 L581.3,82.4 C581.3,82.4 581.3,82.3 581.3,82.3 C581.3,82.2 581.3,82.1 581.4,82.1 C581.7,82.1 581.7,82.4 581.9,82.6 Z M580.3,84.6 C580.4,84.7 580.1,84.8 580.2,85 L580.2,84.9 C580.6,84.6 581,84.3 581.4,83.9 C581.3,83.9 581.2,83.9 581.1,83.9 C580.9,83.8 580.9,83.6 580.9,83.4 L580.1,82.5 L580.1,82.4 C580,82.6 579.9,82.7 579.8,82.8 C579.8,82.9 579.8,83 579.9,83.1 C580.2,83.2 580.5,83.4 580.6,83.7 C580.5,84 579.9,84.3 580.3,84.6 Z M576.5,74 C576.5,73.4 577.2,73.5 577.4,73.1 L577.3,73.1 C577.2,73 577.1,73 577.1,72.9 C577.2,72.8 577.4,72.6 577.5,72.6 C576.9,72.2 576.3,71.9 575.6,71.7 C575.3,71.6 575.1,71.6 574.8,71.5 C574.9,71.9 574.8,72.5 574.9,72.9 L575.4,73.1 C575.6,72.9 575.9,72.8 576,72.6 C576.1,72.5 576.2,72.6 576.3,72.7 C576.3,72.8 576.3,73 576.2,73.2 C576,73.6 575.5,73.6 575.3,73.9 C575.5,74 575.6,73.8 575.7,73.8 C575.9,73.8 576.1,74 576.2,74.1 C576.3,74.1 576.4,74 576.5,74 Z M577,79.7 C576.8,79.6 576.7,79.7 576.5,79.9 C576.5,80 576.4,80.1 576.5,80.1 C576.6,79.9 577,79.9 577,79.7 Z M580.9,73.1 C580.5,72.9 581,72.6 580.9,72.2 C580.7,71.8 580.3,71.4 580,71 L580,71.1 C579.4,71.8 578.7,72.4 578.1,73.1 C578.2,73.2 578.2,73.3 578.3,73.3 C578.3,73.1 578.4,73 578.4,72.8 C578.5,72.6 578.8,72.8 579,72.8 C579.4,72.8 579.7,72.9 580,72.9 C580.3,73.1 580.3,73.4 580.5,73.5 C580.5,73.6 580.5,73.7 580.4,73.8 C580.5,74.3 580.7,73.7 581,73.8 C581.1,73.8 581.2,73.8 581.3,73.9 C581.3,74.1 581.6,74.1 581.6,74.3 C581.6,74.4 581.5,74.4 581.4,74.5 C581.5,74.8 581.2,74.9 581.3,75.1 C581.7,75.2 581.7,74.7 581.9,74.5 C581.8,74.2 581.7,73.8 581.5,73.5 C581.3,73.4 581.1,73.1 580.9,73.1 Z M582.1,76.7 C581.7,76.7 581.2,76.8 580.8,76.6 L581,76.8 C581.2,77 581.1,77.3 581.3,77.4 C581.6,77.6 581.7,77.9 581.8,78.1 C581.9,78 581.9,78 581.9,77.9 C582,77.5 582,77.1 582.1,76.7 Z M579.3,70.9 L579.7,70.8 L579.5,70.7 C578.7,70.1 577.9,69.6 577,69.3 C576.3,69 575.6,68.9 574.8,68.8 L574.9,69 L574.9,70.8 L575.1,70.8 C576.3,70.9 577.3,71.3 578.2,72 L578.2,72.1 C578.5,71.7 578.9,71.3 579.3,70.9 Z M577.4,81 C577.3,81.1 577.3,81.1 577.2,81 C577.4,81.1 577.7,81.1 578,81.2 C578.3,81.3 578.4,81.6 578.7,81.5 C578.9,81.3 579.3,81.6 579.5,81.3 C579.5,81 579.7,80.8 579.8,80.6 L579.9,80.6 C580,80.7 580,80.9 580.1,81.1 C580.3,80.9 580.4,80.7 580.6,80.5 C581.1,79.9 581.4,79.2 581.6,78.4 C581.5,78.4 581.3,78.4 581.1,78.5 C580.9,78.5 580.7,78.6 580.5,78.5 C580.4,78.5 580.4,78.5 580.4,78.6 C580.3,78.7 580.3,78.8 580.1,78.8 C579.9,78.7 579.9,78.6 579.9,78.5 C579.9,78.6 579.9,78.6 579.9,78.7 C579.7,78.9 579.7,79 579.6,79.2 C579.5,79.3 579.3,79.3 579.1,79.4 C579.1,79.8 578.7,79.7 578.5,79.8 C578.5,79.9 578.6,79.9 578.6,79.9 C578.7,79.9 578.8,79.9 578.9,79.8 C579.2,79.9 579.1,79.5 579.3,79.4 C579.4,79.4 579.6,79.3 579.7,79.4 C579.9,79.6 579.9,79.9 579.9,80.1 C579.7,80.2 579.8,80.5 579.7,80.7 C579.7,81 579.5,81.1 579.5,81.3 C579.4,81.4 579.2,81.4 579.1,81.4 C578.6,81.2 578,81.1 577.4,81 Z M576.1,63.4 C575.7,63.3 575.2,63.3 574.8,63.4 C574.9,64 574.8,64.7 574.8,65.3 C574.8,65.2 574.9,65.1 574.9,65.1 C575,65 575.1,65.1 575.1,65.2 C575.1,65.3 575.2,65.4 575.1,65.5 C575.2,65.6 575.2,65.5 575.3,65.5 C576.9,65.6 578.3,66.1 579.6,66.8 C579.9,66.6 580.2,66.5 580.5,66.7 C580.9,66.6 580.9,67 581.2,67 C581.5,67.2 581.9,67.5 581.9,67.9 C582,68 582.2,68.1 582.2,68.2 C582.4,67.7 582.8,67.4 583.2,67 L583.4,66.9 C581.3,64.9 578.8,63.8 576.1,63.4 Z M575.6,66.1 C575.3,66.1 575,66.1 574.4,66.2 L574.5,66.3 C574.5,66.9 574.6,67.6 574.5,68.2 C574.8,68.1 575,68.2 575.3,68.2 C576.7,68.4 577.9,68.9 579,69.7 C578.9,69.6 578.7,69.4 578.7,69.2 C578.7,69.2 578.8,69.2 578.8,69.2 C578.9,69 578.6,68.9 578.6,68.7 C578.6,68.6 578.6,68.6 578.7,68.6 C578.9,68.8 579.1,69.1 579.3,69.3 C579.5,69.2 579.6,69.3 579.7,69.4 C579.9,69.5 579.7,69.8 579.9,69.9 C579.9,70.3 580.4,70.5 580.4,70.9 C580.4,71 580.6,71 580.6,71 L581,71.5 C581,71.6 581,71.7 581.1,71.8 C581.3,71.9 581.4,71.7 581.6,71.7 C581.9,71.9 581.6,72 581.6,72.2 C581.7,72.2 581.8,72.1 581.9,72.2 C581.9,72.3 581.8,72.4 581.7,72.5 C581.7,72.6 581.8,72.6 581.9,72.6 C582.1,72.5 582.1,72.7 582.1,72.8 C582.5,73.1 582,73.5 582.2,73.9 C582.3,74.2 582.1,74.4 582,74.6 C582,74.9 581.7,75 581.6,75.3 L581.3,75.4 C581.1,75.6 581.5,75.8 581.3,75.9 L582.1,75.9 L582,75.8 C581.9,75.5 581.9,75.1 582.1,74.8 C582.3,74.5 582.3,74.2 582.5,74 C582.6,74 582.7,73.9 582.7,74 C582.7,74.2 582.7,74.5 582.6,74.7 C582.8,75 582.8,75.4 582.8,75.8 C583.5,75.8 584.1,75.8 584.8,75.8 L584.7,75.7 C584.6,74.4 584.3,73.2 583.8,72.1 C583.7,72.1 583.6,72.2 583.4,72.2 C583.3,72.2 583.3,72.2 583.3,72.1 C583,71.9 582.8,71.5 582.5,71.3 C582.2,71.3 582,70.9 581.7,70.9 C581.4,70.8 581.6,70.4 581.2,70.5 C581,70.4 580.8,70.2 580.8,70 C580.8,69.6 580.7,69.2 580.4,69 C580.1,68.9 580,69.3 579.8,69.2 C579.7,69.1 579.7,68.9 579.7,68.8 C579.7,68.7 579.6,68.6 579.6,68.5 C580,68.1 579.2,68.1 579.4,67.7 C579.4,67.4 579.1,67.2 578.9,67 C577.9,66.6 576.8,66.2 575.6,66.1 Z M574.4,74 C574.3,73.9 574.1,74 574.1,73.8 C574.3,74 574.2,74.2 574.3,74.4 C574.1,74.7 573.7,74.8 573.4,74.9 C573.3,75 573.3,75.2 573.1,75.2 C573,75.4 572.8,75.5 572.9,75.7 C572.8,75.9 572.9,76.2 572.8,76.5 C572.4,76.7 572.5,76.1 572.3,76 L572.2,76.1 C572.1,76.1 572.1,76.1 572,76 C572,76 571.9,75.9 571.8,76 C571.7,76.2 571.6,76.3 571.6,76.5 C571.6,76.6 571.4,76.6 571.4,76.7 C571.6,76.7 571.9,76.6 572.1,76.6 C572.2,76.6 572.3,76.5 572.5,76.5 C572.6,76.6 572.6,76.6 572.6,76.7 L572.7,76.7 C572.8,76.6 572.8,76.5 572.8,76.4 C572.8,76.2 573,76.2 573.1,76.2 C573.1,76.2 573.1,76.3 573.1,76.4 C573.4,76.5 573,76.7 573,76.9 C572.9,77 573,77.3 572.7,77.3 C572.6,77.3 572.6,77.3 572.6,77.2 C572.6,77.3 572.7,77.5 572.8,77.5 C573,77.3 573,77 573.3,77 C573.5,76.9 573.3,76.6 573.5,76.5 C573.8,76.5 574.2,76.3 574.5,76.6 C574.4,76.7 574.4,76.8 574.5,76.9 C574.5,77.1 574.4,77.3 574.3,77.4 C574.3,77.5 574.3,77.6 574.2,77.7 C574.1,78.2 573.6,78 573.3,78.1 C573.7,78.4 574.2,78.5 574.8,78.5 C575.1,78.5 574.9,78.2 575.1,78 C575.2,77.5 575.6,77.8 575.9,77.7 C576,77.5 576.1,77.3 576.1,77.1 C575.9,77 575.8,76.8 575.9,76.6 C575.7,76.4 575.8,76.1 575.5,76.1 C575.4,76 575.5,75.9 575.5,75.9 C575.5,75.8 575.7,75.7 575.7,75.6 C575.5,75.5 575.6,75.2 575.6,75.1 C575.3,75.2 575.3,74.9 575.1,74.8 C575,74.7 574.8,74.6 574.7,74.6 C574.4,74.8 574.3,74.4 574.1,74.3 C574.1,74.3 574,74.2 574.1,74.1 C574.2,74 574.4,74.1 574.5,74.1 L574.4,74 Z M574.1,86.7 L574,86.4 L574,84.6 L573.8,84.7 C572.1,84.6 570.7,84 569.4,83 C569.4,83.2 569.7,83.3 569.6,83.5 C569.5,83.7 569.3,83.7 569.1,83.7 C568.8,83.7 568.5,84 568.1,84 C567.7,84.1 567.6,83.7 567.3,83.7 C569.2,85.4 571.4,86.5 573.9,86.6 L574.1,86.7 Z M566.9,76.8 C566.9,77.3 567.1,77.7 567,78.2 C567.1,78.1 567.1,77.9 567.3,77.8 C567.4,77.7 567.2,77.6 567.2,77.5 C567.3,77.2 567.2,76.8 567.5,76.7 C567.2,76.7 567,76.7 566.8,76.6 L566.9,76.8 Z M564.8,79.2 C564.8,79 565,78.9 564.9,78.7 C565,78.4 565,78 565.3,77.8 C565.6,77.8 565.7,77.3 566,77.3 C566.2,77.3 566.3,77.5 566.4,77.6 C566.1,77.3 566.1,76.9 566.2,76.6 L566,76.7 C565.4,76.7 564.7,76.8 564.1,76.7 L564.2,76.8 L564.3,78.1 C564.4,78.6 564.6,79 564.6,79.5 C564.7,79.4 564.6,79.2 564.8,79.2 Z M566.2,76 C566.1,76 566.2,75.9 566,75.9 C566.2,73.9 566.9,72.1 568.2,70.7 C567.7,70.3 567.2,69.8 566.8,69.3 L566.8,69.4 L566.1,70.3 C564.9,72 564.4,73.9 564.2,76 L566.1,76 L566.2,76 Z M574,68.1 C574,67.4 573.9,66.7 574,66.2 C572,66.3 570.2,66.9 568.6,68 C568.2,68.3 567.8,68.6 567.4,68.9 C567.9,69.2 568.3,69.8 568.8,70.2 L568.8,70.3 C569.9,69.2 571.4,68.5 572.9,68.2 C573.3,68.1 573.6,68 574,68.1 Z M570.9,78.4 C570.8,78.3 570.7,78.2 570.6,78.3 C570.7,78.2 570.5,78.2 570.5,78.1 C570.5,78 570.5,78 570.4,78.1 C570.4,78.1 570.3,78.1 570.3,78.1 C570.3,77.7 569.9,77.9 569.7,77.7 C569.9,78 570,78.4 570.2,78.8 C570.3,79.1 570.6,79.4 570.7,79.7 C570.9,79.4 571.1,79.2 571.3,79 C571.3,78.9 571.3,78.8 571.2,78.7 C571.2,78.5 571.2,78.3 571.1,78.2 C570.9,78.2 571.2,78.4 571.1,78.5 C571,78.5 570.9,78.5 570.9,78.4 Z M573,83.7 C572.7,83.4 572.4,83.1 572.5,82.7 C572.7,82.7 572.7,82.4 572.8,82.2 C572.9,82.1 573.1,82 573.3,81.9 C572.7,82 572.1,81.5 571.6,81.3 C571.3,81.1 570.9,80.9 570.7,80.6 C570.3,81.1 569.8,81.6 569.3,82 C569.5,82 569.6,82.2 569.8,82.3 C570.8,83.2 572.1,83.6 573.3,83.9 L573,83.7 Z M568.6,81.3 C568.7,81.6 568.3,81.5 568.4,81.9 C568.5,81.9 568.5,82 568.5,82 C569.1,81.4 569.7,80.7 570.3,80.2 L570,79.9 C569.5,79.2 569.1,78.4 568.9,77.6 L568.7,77.5 C568.7,77.7 568.6,77.9 568.6,78.1 L568.5,78.2 C568.3,78.2 568.2,78.1 568.1,78 C568.1,77.9 568,77.8 568.1,77.7 C568.2,77.6 568.3,77.7 568.3,77.7 C568.4,77.6 568.4,77.5 568.4,77.4 C568.4,77.2 568.3,77 568.4,76.9 C568.5,76.9 568.6,77 568.7,77.1 C568.8,77.2 568.9,77 569,77 C569,76.9 569.2,76.8 569,76.7 C569.1,76.4 569,76.2 569,75.9 C568.9,75.6 568.7,75.7 568.5,75.7 C568,75.8 568.6,76.3 568.5,76.6 C568.4,76.8 568.2,76.6 568.1,76.7 L568,77.1 C567.9,77.3 567.6,77.2 567.5,77.3 C567.4,77.4 567.5,77.6 567.6,77.7 C567.4,78.2 568,78.3 568,78.7 C568.1,78.9 567.9,79.3 568.2,79.5 C568.2,80 568.1,80.6 568.5,80.9 L568.6,81.3 Z M569.6,73.2 C570,73.2 570,72.6 570.3,72.6 C569.8,72.2 569.3,71.7 568.8,71.2 C567.9,72.3 567.3,73.6 567,75 C566.9,75.3 566.9,75.7 566.8,76 C567.1,75.9 567.4,76 567.7,76 C567.6,75.9 567.7,75.7 567.6,75.6 C567.6,75.4 567.5,75.2 567.7,75.1 C567.7,74.8 568,74.7 568,74.4 C568.1,74.2 568.4,74.3 568.6,74.2 C568.7,74.2 568.6,74.1 568.6,74 C568.7,73.8 568.9,73.8 569.1,73.7 C569.3,73.5 569.4,73.3 569.6,73.2 Z M573.8,80.6 C573.9,80.5 574,80.5 574.1,80.3 C574.2,80.3 574.2,80.2 574.2,80.1 C574,80 574.1,79.8 574,79.7 C574,79.7 574.1,79.7 574.1,79.6 C574,79.5 574.2,79.4 574.1,79.3 C574.1,79.3 574.2,79.2 574.2,79.2 C573.8,79.4 573.4,79.2 573,79 C572.8,78.9 572.5,78.8 572.5,78.6 C572.2,79.1 571.6,79.6 571.2,80 C572,80.6 572.8,81 573.7,81.2 C573.8,81 573.7,80.8 573.8,80.6 Z M571.6,78.5 C571.8,78.4 571.9,78.2 572.1,78.2 L571.9,78.1 C571.8,78.2 571.7,78.4 571.6,78.5 Z M573.5,72.9 C573.7,73 574,72.8 574,72.9 C573.8,72.4 573.9,71.9 573.9,71.4 C572.8,71.6 571.8,71.9 571,72.8 L571.2,72.8 C571.4,72.9 571.7,72.9 571.8,73.1 C571.9,73.2 571.7,73.2 571.7,73.3 C571.7,73.3 571.8,73.4 571.8,73.4 C571.9,73.5 571.9,73.4 571.9,73.3 C572.1,73.2 572.1,73.5 572.3,73.5 C572.5,73.4 572.6,73.4 572.7,73.5 C572.8,73.4 573.1,73.5 573.1,73.3 C573.3,73.1 573.2,72.7 573.5,72.6 C573.6,72.7 573.5,72.8 573.5,72.9 Z M574,70.7 C574,70.1 574,69.4 574,68.6 L573.9,68.7 C572.1,68.8 570.6,69.5 569.3,70.6 C569.9,71 570.3,71.6 570.8,72 C570.8,72 570.9,72 570.9,71.9 C571.6,71.4 572.2,71 573,70.8 C573.3,70.8 573.6,70.6 574,70.7 Z M566.6,65.9 C566.2,66.2 565.8,66.6 565.4,66.9 L565.5,66.9 C566,67.3 566.5,67.9 567,68.4 L567,68.3 C569,66.4 571.3,65.4 574,65.3 L573.9,65.1 L573.9,63.5 L574,63.3 C571.2,63.4 568.8,64.3 566.6,65.9 Z M561.5,74.8 C561.4,75.2 561.5,75.6 561.4,76.1 C562.1,76 562.8,76 563.5,76.1 L563.5,75.8 C563.6,73.6 564.3,71.6 565.5,69.9 C565.8,69.6 566,69.2 566.4,68.9 C565.9,68.4 565.5,68 565,67.5 L565,67.3 C563,69.5 561.8,72 561.5,74.8 Z M563.1,82.8 C563.6,83.7 564.3,84.5 565.1,85.4 L566.5,84 L566.7,83.9 C566.5,83.7 566.3,83.4 566.1,83.2 C565.8,83.2 565.6,83 565.5,82.8 C565.4,82.7 565.5,82.6 565.4,82.5 L565.3,82.6 C565.1,82.7 565,82.5 564.8,82.4 C564.6,82.3 564.7,81.9 564.4,82 C564.3,82 564.3,81.9 564.2,81.8 C563.9,81.8 563.8,81.5 563.7,81.4 C563.7,81.5 563.7,81.6 563.6,81.6 C563.3,81.7 563.2,81.3 563,81.2 C562.9,81.3 562.9,81.3 562.8,81.3 C562.6,81.1 562.5,80.9 562.5,80.7 C562.3,80.4 562.4,80 562.4,79.7 C562.4,79.7 562.5,79.6 562.5,79.5 C562.6,79.3 562.8,79.3 562.9,79.3 C562.9,79.3 563,79.4 563,79.4 C563.1,79.3 563.3,79.4 563.2,79.2 C563.3,79.1 563.4,79 563.6,79 C563.7,79.1 563.8,79.3 563.9,79.4 L563.8,79.3 C563.7,78.6 563.5,77.9 563.5,77.2 C563.5,77.2 563.4,77.1 563.5,77.1 C563.5,76.9 563.5,76.8 563.5,76.7 L563.3,76.8 L561.4,76.8 C561.5,79 562.1,81 563.1,82.8 Z M572.7,89.3 C573.2,89.3 573.7,89.3 574.1,89.4 L574,89.2 L574,87.4 L574,87.3 L573.8,87.4 C571.1,87.2 568.7,86.3 566.8,84.4 L566.8,84.5 L565.4,85.9 C567.5,87.7 570,88.9 572.7,89.3 Z M574.4,81.5 C574.6,81.2 575,81.5 575.2,81.2 C575.4,81.2 575.3,81.4 575.4,81.5 C575.7,81.4 575.9,81.7 576.1,81.5 C576,81.2 576.4,81.2 576.6,81.1 C576.9,81 577.2,80.7 577.2,80.3 L577.2,80.2 C577,80.2 576.9,80.4 576.7,80.5 C576.6,80.6 576.5,80.3 576.3,80.4 C576.3,80.5 576.4,80.5 576.4,80.5 C576.4,80.5 576.5,80.7 576.4,80.7 C576.1,80.9 576,80.6 575.8,80.6 L575.8,80.7 C575.8,80.8 575.8,80.8 575.7,80.8 C575.5,80.6 575.2,80.7 575.1,80.5 C575,80.5 575,80.5 574.9,80.6 C574.9,80.7 574.6,80.6 574.7,80.8 C574.5,80.9 574.5,81.1 574.4,81.2 C574.2,81.2 574.1,81.4 573.9,81.4 C574,81.4 573.9,81.5 574,81.5 C574.1,81.5 574.2,81.5 574.4,81.5 Z M574.9,85 C574.9,84.9 574.8,84.9 574.8,84.8 L574.9,85 C574.9,85.6 575,86.1 574.9,86.7 C575.4,86.6 576,86.6 576.5,86.5 C576.4,86.4 576.3,86.4 576.2,86.3 C575.9,86.3 575.7,86 575.6,85.7 C575.5,85.5 575.6,85.4 575.7,85.2 C575.6,84.9 575.1,85.1 574.9,85 Z M574.9,89.4 C578.2,89.2 581.1,88 583.5,85.9 L582.1,84.5 L582.1,84.3 C581.9,84.7 581.5,84.9 581.2,85.2 C580.7,85.7 580,85.8 579.8,86.4 C579.5,86.6 579.4,87 579.1,87.1 C578.9,87.4 578.6,87.4 578.4,87.6 C577.8,88.1 577.4,87.3 576.9,87.2 L575.9,87.4 C575.5,87.4 575.1,87.5 574.8,87.4 C574.8,88.1 574.8,88.8 574.8,89.5 L574.9,89.4 Z M587.5,76.8 L587.5,76.7 L587.4,76.7 L585.5,76.7 L585.4,76.6 L585.5,76.8 C585.4,79.1 584.6,81.1 583.3,82.9 C583.1,83.2 582.8,83.6 582.5,83.8 C583,84.2 583.6,84.8 584,85.3 L584.1,85.2 C586.2,82.8 587.4,80 587.5,76.8 Z M580.6,66 C580.7,65.9 580.8,66.1 581,66 C581.1,66 581.3,66.1 581.3,66.2 C581.2,66.3 581.4,66.5 581.3,66.6 C580.9,66.7 580.9,66.3 580.6,66.2 C580.6,66.1 580.6,66.1 580.6,66 Z M575.1,64.9 C575.1,64.8 575,64.8 575,64.8 C575.1,64.7 575.2,64.8 575.3,64.8 L576.3,64.4 C576.7,64.4 577.2,64.5 577.4,64.8 C577.1,65 576.8,65.1 576.5,65 C576.1,65.1 575.5,65.4 575.1,64.9 Z M599.1,71.8 L599.1,65.2 L602.4,65.2 L602.4,71.8 C602.4,73.5 603.3,74.3 604.6,74.3 C605.9,74.3 606.8,73.5 606.8,71.9 L606.8,65.2 L610.1,65.2 L610.1,71.7 C610.1,75.5 607.9,77.2 604.6,77.2 C601.2,77.2 599.1,75.5 599.1,71.8 Z M612,65.2 L615,65.2 L619.9,71.4 L619.9,65.2 L623.2,65.2 L623.2,77 L620.3,77 L615.3,70.5 L615.3,77 L612,77 L612,65.2 Z M625.3,65.2 L628.6,65.2 L628.6,77 L625.3,77 L625.3,65.2 Z M633.6,68.1 L630,68.1 L630,65.2 L640.4,65.2 L640.4,68.1 L636.8,68.1 L636.8,77 L633.5,77 L633.6,68.1 Z M641.9,65.2 L651.4,65.2 L651.4,68 L645.1,68 L645.1,69.8 L650.8,69.8 L650.8,72.4 L645.1,72.4 L645.1,74.3 L651.4,74.3 L651.4,77 L641.8,77 L641.8,65.2 L641.9,65.2 Z M653.1,65.2 L657.7,65.2 C661.9,65.2 664.4,67.6 664.4,71 C664.4,74.4 661.9,76.9 657.7,76.9 L653.2,76.9 L653.2,65.2 L653.1,65.2 Z M657.7,74.1 C659.6,74.1 661,73 661,71.1 C661,69.2 659.7,68.1 657.7,68.1 L656.4,68.1 L656.4,74.1 L657.7,74.1 Z M599.2,80.6 L602.3,80.6 L607.2,86.8 L607.2,80.6 L610.5,80.6 L610.5,92.4 L607.6,92.4 L602.6,85.9 L602.6,92.4 L599.3,92.4 L599.2,80.6 Z M616.5,80.5 L619.7,80.5 L624.7,92.4 L621.2,92.4 L620.3,90.3 L615.7,90.3 L614.9,92.4 L611.4,92.4 L616.5,80.5 Z M619.4,87.7 L618.1,84.3 L616.8,87.7 L619.4,87.7 Z M627.2,83.4 L623.6,83.4 L623.6,80.5 L634,80.5 L634,83.4 L630.4,83.4 L630.4,92.4 L627.1,92.4 L627.2,83.4 Z M635.5,80.6 L638.8,80.6 L638.8,92.4 L635.5,92.4 L635.5,80.6 Z M640.6,86.5 C640.6,83.1 643.3,80.3 647,80.3 C650.7,80.3 653.3,83 653.3,86.4 C653.3,89.8 650.6,92.5 646.9,92.5 C643.3,92.6 640.6,89.9 640.6,86.5 Z M649.9,86.5 C649.9,84.8 648.7,83.3 646.9,83.3 C645.1,83.3 643.9,84.7 643.9,86.5 C643.9,88.2 645.1,89.7 646.9,89.7 C648.8,89.6 649.9,88.2 649.9,86.5 Z M655,80.6 L658.1,80.6 L663,86.8 L663,80.6 L666.3,80.6 L666.3,92.4 L663.4,92.4 L658.4,85.9 L658.4,92.4 L655,92.4 L655,80.6 Z M667.3,90.6 L669.1,88.4 C670.3,89.3 671.5,89.8 672.9,89.8 C673.8,89.8 674.2,89.5 674.2,89 C674.2,88.5 673.8,88.2 672.2,87.9 C669.7,87.3 667.7,86.6 667.7,84.2 C667.7,82 669.4,80.4 672.3,80.4 C674.3,80.4 675.9,80.9 677.2,82 L675.6,84.3 C674.5,83.5 673.4,83.1 672.3,83.1 C671.5,83.1 671.1,83.4 671.1,83.9 C671.1,84.4 671.5,84.7 673.1,85 C675.8,85.6 677.5,86.5 677.5,88.7 C677.5,91.1 675.6,92.6 672.7,92.6 C670.8,92.6 668.8,91.9 667.3,90.6 Z" id="un-dark"></path>
        </g>
    </g>
</svg>