<?xml version="1.0" encoding="UTF-8"?>
<svg width="181px" height="29px" viewBox="0 0 181 29" version="1.1" xmlns="http://www.w3.org/2000/svg" xmlns:xlink="http://www.w3.org/1999/xlink">
    <!-- Generator: Sketch 52.1 (67048) - http://www.bohemiancoding.com/sketch -->
    <title>yale-dark</title>
    <desc>Created with Sketch.</desc>
    <g id="Page-1" stroke="none" stroke-width="1" fill="none" fill-rule="evenodd">
        <g id="Group-Copy-2" transform="translate(-137.000000, -67.000000)" fill="#687986">
            <path d="M155.972128,70 C155.998068,70.4670206 155.998068,70.7002669 155.972128,70.699739 C153.896554,70.6543391 153.374395,71.8149397 152.860128,72.3761035 L147.852955,80.2764759 L147.852955,85.2691439 C147.852955,86.7971669 149.437934,87.2999971 151.256918,87.2999971 L151.1859,87.3065959 L151.1859,88 L141.827043,88 L141.827043,87.2999971 C143.645755,87.2999971 145.231006,86.757574 145.231006,86.1069302 L145.231006,80.6317565 L140.070097,72.2071737 L140.14302,72.3763674 C139.628752,71.8149397 139.075574,70.6543391 137,70.699739 L137,70 L145.088698,70 L145.088698,70.699739 C143.933364,70.699739 142.84279,71.074816 142.674088,71.4799836 L147.140055,78.7693052 L151.692277,71.5868845 C151.692277,71.1434437 150.525243,70.699739 149.285558,70.699739 L149.285558,70 L155.972128,70 Z M170.021961,86.2472541 C170.021961,86.7741855 170.902019,87.2725966 172,87.2725966 L172,88 L166,88 L166,87.2725966 C166.81392,87.2809035 167.788749,86.9450297 167.788749,86.4178215 L167.788749,69.7767039 C167.788749,69.2259596 167.012586,68.9313432 166.047386,68.9313432 L166.047386,68.3315885 L169.993581,67 L170.561449,67 L170.561449,67.4809668 L170.021961,68.396105 L170.021961,86.2472541 Z M179.637648,75.9270913 C177.684891,75.9270913 176.678138,78.0075972 176.678138,78.9497588 L182.208098,78.9497588 C182.208098,78.1055541 181.590406,75.9270913 179.637648,75.9270913 Z M184.546326,84.7440123 L185,85.427288 C182.669503,87.688099 181.184778,88 179.349098,88 C176.523508,88 174,85.7386507 174,82.2797524 C174,77.255967 177.343324,75 180.32879,75 C181.957929,75 182.893717,75.4448424 183.739488,76.4096094 C184.584984,77.3743764 184.608178,78.9395326 184.608178,79.7788933 L176.593092,79.7788933 C176.593092,79.7788933 176.492582,80.7877947 176.492582,81.2463618 C176.492582,84.1960999 178.482893,86.3616453 181.060798,86.3616453 C182.690213,86.3616453 183.700831,85.5879479 184.546326,84.7440123 Z M158.117791,86.5941277 C159.34064,86.5941277 160.23222,86.0844719 160.732577,85.5602392 L160.732577,81.6284937 L156.894113,83.2011919 C156.393756,84.9655509 156.72392,86.5941277 158.117791,86.5941277 Z M164.400571,86.3843806 C164.978565,86.3843806 165.507379,86.0669255 166,85.6312347 L166,86.475082 C165.577004,86.8378878 164.276794,88 162.821864,88 C161.599291,88 160.762968,87.0600523 160.762968,86.1322522 C160.74501,86.1792226 160.732577,86.2105362 160.732577,86.2105362 C160.732577,86.2105362 159.045564,88 156.986945,88 C154.928603,88 154,86.4826405 154,85.3486025 C154,83.9573072 154.603412,82.9744383 154.603412,82.9744383 L160.732577,80.7967939 L160.732577,78.8863948 C160.732577,76.6949832 158.999148,76.0938162 158.368383,76.0938162 C157.536481,76.0938162 156.754864,77.2054487 156.754864,78.4982142 L154.324914,79.0011213 C154.324914,77.1055692 157.219303,75 159.803974,75 C162.388645,75 163.162526,76.6887745 163.162526,77.6967482 L163.162526,85.3259272 C163.162526,86.0466797 163.822854,86.3843806 164.400571,86.3843806 Z M206.150891,69 L214,69 L214,69.7067169 C212.766402,69.7067169 211.481786,70.3901116 211.266343,70.9853701 L211.266343,81.2750707 C211.266343,83.8573264 209.215892,88 203.313532,88 C198.84025,88 195.702602,85.1183523 195.702602,81.2750707 L195.702602,70.6867917 C195.407027,70.1563472 194.178143,69.7067169 193,69.7067169 L193,69 L201.315209,69 L201.315209,69.7067169 C200.095752,69.7067169 198.724349,70.1886187 198.467592,70.7426565 L198.467592,81.2750707 C198.467592,83.0521681 199.8548,86.1513088 204.245455,86.1513088 C208.636109,86.1513088 209.534481,82.0951443 209.534481,81.2750707 C209.534481,81.219477 209.542799,81.1557478 209.557772,81.0871371 L209.557772,71.1535069 C209.557772,70.5270617 207.50233,69.7067169 206.150891,69.7067169 L206.150891,69 Z M257.637372,75.9270913 C255.685167,75.9270913 254.678138,78.0075972 254.678138,78.9497588 L260.208098,78.9497588 C260.208098,78.1055541 259.59013,75.9270913 257.637372,75.9270913 Z M262.546326,84.7440123 L263,85.427288 C260.669503,87.688099 259.184778,88 257.349098,88 C254.523508,88 252,85.7386507 252,82.2797524 C252,77.255967 255.343048,75 258.328514,75 C259.957652,75 260.893993,75.4448424 261.739212,76.4096094 C262.584708,77.3743764 262.607902,78.9395326 262.607902,79.7788933 L254.593092,79.7788933 C254.593092,79.7788933 254.492306,80.7877947 254.492306,81.2463618 C254.492306,84.1960999 256.482617,86.3616453 259.060798,86.3616453 C260.690213,86.3616453 261.700831,85.5879479 262.546326,84.7440123 Z M233.499869,72 C232.671552,72 232,71.3283335 232,70.499862 C232,69.6713904 232.671552,69 233.499869,69 C234.32871,69 235,69.6713904 235,70.499862 C235,71.3283335 234.32871,72 233.499869,72 Z M235.092747,86.1969751 C235.092747,86.913018 236.043713,87.2855888 237,87.2855888 L237,88 L231,88 L231,87.2855888 C232.005763,87.2855888 232.867618,86.7452252 232.867618,86.3068427 L232.867618,78.1646759 C232.867618,77.4945924 231.409381,76.9273058 231.096826,76.9273058 L231.096826,76.3594753 L234.71768,75 L235.092747,75 L235.092747,86.1969751 Z M288.5,71 C287.671755,71 287,70.3283335 287,69.499862 C287,68.6713904 287.671755,68 288.5,68 C289.328768,68 290,68.6713904 290,69.499862 C290,70.3283335 289.328768,71 288.5,71 Z M290.092747,86.1969751 C290.092747,86.913018 291.043713,87.2855888 292,87.2855888 L292,88 L286,88 L286,87.2855888 C287.005763,87.2855888 287.867618,86.7452252 287.867618,86.3068427 L287.867618,78.1646759 C287.867618,77.4945924 286.409381,76.9273058 286.09656,76.9273058 L286.09656,76.3594753 L289.71768,75 L290.092747,75 L290.092747,86.1969751 Z M245.703631,75 L251,75 L251,75.7278404 C249.909884,75.7278404 249.215381,76.5141408 248.969348,77.0577353 C248.969348,77.0580124 248.969076,77.0580124 248.969076,77.0582895 L244.533411,87.6866435 L243.361011,88 L239.175193,76.794804 C238.709013,76.0043477 237.923235,75.7278404 237.039372,75.7278404 C236.98379,75.7278404 236.990056,75.721468 237.039372,75.7109397 L237.039372,75 L243.348206,75 L243.348206,75.7139873 C243.416866,75.7225762 243.425585,75.7278404 243.348206,75.7278404 C242.859683,75.7278404 241.542879,76.0287291 241.542607,76.361757 L244.775901,84.8714222 L244.775901,84.8711451 L247.804578,76.80838 C247.804033,76.0794314 246.257817,75.7278404 245.703631,75.7278404 L245.703631,75 Z M312.703657,76 L318,76 L318,76.7102303 C316.909889,76.7102303 316.215389,77.4775062 315.969358,78.0079485 C315.969358,78.0082189 315.969086,78.0082189 315.969086,78.0084892 L309.077764,94.7433762 L309.077764,94.7431059 C308.997116,95.4490105 308.332586,96 307.524199,96 C306.661864,96 305.96246,95.3727695 305.96246,94.5990051 C305.96246,93.8257813 306.661864,93.1982805 307.524199,93.1982805 C307.873764,93.1982805 308.195539,93.3026387 308.456011,93.4767492 L310.361049,88.6854656 L306.175251,77.7513788 C305.7088,76.9800476 304.923026,76.7102303 304.039167,76.7102303 C303.983858,76.7102303 303.990124,76.7040121 304.039167,76.6937385 L304.039167,76 L310.347971,76 L310.347971,76.6967124 C310.41663,76.7050935 310.425622,76.7102303 310.347971,76.7102303 C309.859723,76.7102303 308.542653,77.0038391 308.54238,77.3288093 L311.775659,85.6325835 L311.775659,85.6323132 L314.804321,77.7646264 C314.804048,77.0533146 313.257567,76.7102303 312.703657,76.7102303 L312.703657,76 Z M300.741718,86.5224396 C301.354735,86.5224396 302.474348,86.3214128 303,85.9868107 L303,86.6214924 C302.551158,86.9786669 300.503665,88 298.960129,88 C296.356787,88 295.502785,86.5397008 295.502785,85.3099053 L295.502785,84.276091 L295.502785,77.0014163 L294,77.0014163 L294,76.3470833 L297.678687,73 L298.089417,73 L298.089417,75.580154 L302.72061,75.580154 L302.72061,77.0014163 L298.089417,77.0014163 L298.089417,84.276091 L298.081208,84.276091 C298.081208,84.9848632 300.128408,86.5224396 300.741718,86.5224396 Z M271.740493,75.1626224 C272.769971,75.1626224 273.367405,75.4571375 274,75.7516526 L272.855198,78.046858 C272.771658,78.1504686 272.645927,78.1569952 272.60036,78.1569952 C272.151159,78.1569952 271.405772,77.3156012 270.129332,77.3156012 C269.632876,77.3156012 269.17608,77.4831186 268.327745,78.351435 L268.327745,86.1970128 C268.327745,86.9127688 270.047761,87.2856037 271.058956,87.2856037 L271.058956,88 L264,88 L264,87.2856037 C265.063513,87.2856037 265.974854,86.7449795 265.974854,86.3068781 L265.974854,78.1648816 C265.974854,77.4945402 264.433168,76.9275374 264.102385,76.9275374 L264.102385,76.3597189 L267.931143,75 L268.327745,75 L268.327745,77.6609698 C268.874269,77.1124592 270.711015,75.1626224 271.740493,75.1626224 Z M227.329532,86.1969751 C227.329532,86.913018 229.011019,87.2855888 230,87.2855888 L230,88 L223.098036,88 L223.098036,87.2855888 C224.137896,87.2855888 225.028969,86.7452252 225.028969,86.3068427 L225.028969,79.4863502 C225.028969,77.8187561 223.673658,76.7062109 222.23034,76.7062109 C221.381896,76.7062109 220.376689,77.0336381 219.231496,77.7665418 L219.231496,86.1969751 C219.231496,86.913018 220.214701,87.2855888 221.203407,87.2855888 L221.203407,88 L215,88 L215,87.2855888 C216.039585,87.2855888 216.930658,86.7452252 216.930658,86.3068427 L216.930658,78.1646759 C216.930658,77.4945924 215.42326,76.9273058 215.099833,76.9273058 L215.099833,76.3594753 L218.843714,75 L219.231496,75 L219.231496,77.1326277 C220.114593,76.4116896 222.497387,75.0758739 224.06639,75.0758739 C225.072973,75.0758739 227.329532,75.4264168 227.329532,78.3512332 L227.329532,81.3576345 L227.329532,86.1969751 Z M280.66997,81.0321158 C281.932559,81.6230005 283,82.4341606 283,84.1768016 C283,86.8589627 280.324687,88 278.49986,88 C276.999068,88 275.14181,87.5948219 274.32711,87.1920556 L274,83.9570622 L274.751514,83.9768923 C275.293902,84.9145366 276.82405,87.0993362 277.936224,87.0993362 C279.293312,87.0993362 280.765866,86.6191252 280.765866,85.0576352 C280.765866,83.7756431 279.772794,83.145902 278.568358,82.6150437 C277.630083,82.2213885 276.537759,81.8617662 275.698736,81.2641821 C275.32186,81.0050503 274.996428,80.7035785 274.76102,80.3316293 L274.786462,80.3316293 C274.51415,79.9007256 274.349756,79.3808542 274.349756,78.7328908 C274.349756,76.0507297 277.082663,75 278.906931,75 C280.408002,75 281.85819,75.3148705 282.67261,75.7176369 L282.859091,78.8679502 L282.107297,78.8481201 C281.564909,77.9102078 280.34957,75.8106242 279.237675,75.8106242 C277.880308,75.8106242 276.589202,76.2908353 276.589202,77.8520572 C276.589202,79.2390955 277.695785,79.8168494 278.975148,80.3316293 L278.994999,80.3316293 C279.192942,80.4147015 279.395639,80.4958979 279.599453,80.5776303 C279.961231,80.719389 280.324407,80.8657033 280.66997,81.0321158 Z" id="yale-dark"></path>
        </g>
    </g>
</svg>